<svg width="209" height="241" viewBox="0 0 209 241" xmlns="http://www.w3.org/2000/svg" xmlns:xlink="http://www.w3.org/1999/xlink"><defs><path id="a" d="M0 241h208.167V.629H0z"/></defs><g fill="#fff" fill-rule="evenodd"><path d="M104.084 0L0 60.094v120.185l104.085 60.093 104.082-60.092V60.093L104.087 0h-.004zM2.74 178.697V61.675L104.085 3.163l101.344 58.51v117.023l-101.344 58.512L2.74 178.696z"/><path d="M9.646 174.71l94.438 54.523 94.439-54.523V65.661l-94.438-54.525L9.644 65.661l.002 109.05zm94.438 57.47l-.638-.367-96.354-55.63V64.187L104.085 8.19l96.992 55.998v111.996l-.64.37-96.353 55.627z"/><g transform="translate(0 -.629)"><path d="M39.82 102.269c0-2.204-.765-3.068-2.012-3.068h-2.876v24.062h2.876c1.247 0 2.013-.959 2.013-3.069v-17.925zm-1.916 27.321h-2.972v26.648h-6.613V92.395h9.585c3.739 0 8.532 1.918 8.532 10.067v17.062c0 8.148-4.793 10.066-8.532 10.066zm24.338-27.896c0-1.725-1.054-3.067-2.78-3.067-1.821 0-2.78 1.342-2.78 3.067v45.246c0 1.82.959 3.067 2.78 3.067 1.726 0 2.78-1.247 2.78-3.067v-45.246zm-2.78 55.31c-5.176 0-9.49-4.41-9.49-10.928v-43.52c0-6.42 4.314-10.927 9.49-10.927 5.177 0 9.49 4.506 9.49 10.927v43.52c0 6.518-4.313 10.928-9.49 10.928zm25.593-54.735c0-2.204-.766-3.068-2.013-3.068h-2.779v22.719h2.493c1.436 0 2.3-1.055 2.3-3.355v-16.296zm3.548 54.161c-2.205 0-3.259-3.835-3.259-7.861v-16.871c0-1.917-.959-3.26-2.493-3.26h-2.588v27.8h-6.71V92.395h9.682c3.738 0 8.435 1.918 8.435 10.067v15.624c0 3.355-1.247 5.751-3.739 7.286 2.492 1.532 3.931 3.834 3.931 7.284v15.433c0 2.876.287 4.889 1.055 6.518v1.823h-4.314zm18.769-57.133v56.94h-6.615v-56.94h-5.943v-6.902h18.214v6.902zm8.444 56.941V92.396h15.433v6.614h-8.82v21.089h6.233v6.615h-6.233v22.909h8.82v6.615zm30.117-53.969c0-2.204-.767-3.068-2.014-3.068h-2.778v22.719h2.492c1.437 0 2.3-1.055 2.3-3.355v-16.296zm3.547 54.161c-2.205 0-3.26-3.835-3.26-7.861v-16.871c0-1.917-.96-3.26-2.493-3.26h-2.586v27.8h-6.71V92.395h9.68c3.739 0 8.436 1.918 8.436 10.067v15.624c0 3.355-1.245 5.751-3.74 7.286 2.495 1.532 3.932 3.834 3.932 7.284v15.433c0 2.876.288 4.889 1.055 6.518v1.823h-4.314zm5.079-47.834v-1.916c1.534 0 2.492-1.343 2.492-4.698h-2.492v-9.586h5.369v8.723c0 4.314-1.822 7.477-5.37 7.477m15.914 48.408c-5.944 0-9.492-4.217-9.492-11.31v-8.149h6.039v8.915c0 2.588 1.057 4.408 3.165 4.408 2.3 0 3.355-1.629 3.355-4.408 0-6.424-1.822-11.887-5.177-19.268-2.972-6.422-7.094-16.295-7.094-22.91 0-7.382 2.972-12.653 9.778-12.653 5.272 0 8.627 4.026 8.627 11.312v8.913h-5.943v-9.392c0-2.878-.96-4.219-2.684-4.219-1.917 0-3.26 1.246-3.26 3.93 0 7.956 1.919 11.695 5.56 20.034 3.549 7.957 6.615 15.818 6.615 22.527 0 9.97-5.655 12.27-9.49 12.27m-139.558 6.494H28.22v-1.383h6.893v1.383h-2.694v7.112h-1.505zm12.247 2.829c1.067 0 1.747-.558 1.747-1.42v-.025c0-.91-.656-1.407-1.76-1.407h-2.173v2.852h2.186zm-3.678-4.211h3.786c1.068 0 1.906.315 2.453.849.45.46.703 1.092.703 1.833v.023c0 1.397-.837 2.233-2.028 2.573l2.295 3.217h-1.76l-2.088-2.961h-1.869v2.96h-1.492v-8.494zm16.712 5.121l-1.468-3.398-1.457 3.398h2.925zm-2.137-5.182h1.385l3.737 8.556h-1.577l-.863-2.051h-4.016l-.874 2.05H50.32l3.737-8.555zm12.539 7.196c1.784 0 2.948-1.202 2.948-2.865v-.024c0-1.663-1.164-2.887-2.948-2.887h-1.675v5.776h1.675zm-3.168-7.136h3.168c2.67 0 4.515 1.833 4.515 4.223v.024c0 2.391-1.845 4.248-4.515 4.248h-3.168v-8.495z"/><mask id="b"><use xlink:href="#a"/></mask><path mask="url(#b)" d="M75.796 170.61h1.493v-8.495h-1.493zm6.554-8.495h1.383l4.552 5.874v-5.874h1.468v8.495h-1.25l-4.685-6.043v6.043H82.35zm12.002 4.272v-.024c0-2.38 1.821-4.393 4.383-4.393 1.48 0 2.391.412 3.264 1.153l-.946 1.128c-.656-.558-1.3-.91-2.38-.91-1.565 0-2.754 1.37-2.754 2.998v.024c0 1.748 1.153 3.034 2.888 3.034.801 0 1.53-.255 2.051-.643v-1.59h-2.172v-1.298h3.617v3.568c-.839.715-2.039 1.323-3.543 1.323-2.659 0-4.408-1.894-4.408-4.37m19.117-4.272h1.493v7.136h4.467v1.36h-5.96zm10.389 8.495h1.494v-8.495h-1.494zm6.552-8.495h1.591l2.585 4.017 2.586-4.017h1.59v8.495h-1.492v-6.093l-2.684 4.007h-.048l-2.658-3.982v6.068h-1.47zm13.412 8.495h1.496v-8.495h-1.496zm8.644-7.112h-2.696v-1.383h6.894v1.383h-2.695v7.112h-1.503zm8.567-1.383h6.3v1.335h-4.808v2.21h4.262v1.334h-4.262v2.282h4.867v1.334h-6.359zm14.09 7.136c1.785 0 2.95-1.202 2.95-2.865v-.024c0-1.663-1.165-2.887-2.95-2.887h-1.673v5.776h1.673zm-3.165-7.136h3.165c2.671 0 4.517 1.833 4.517 4.223v.024c0 2.391-1.846 4.248-4.517 4.248h-3.165v-8.495zM90.043 70.273h-.623v-1.918a.15.15 0 0 1 .15-.152h.32c.086 0 .153.068.153.152v1.918zm6.769 12.087c-.84-1.14-1.635-2.22-1.635-4.833v-2.641a4.62 4.62 0 0 0-4.155-4.591v-1.94c0-.624-.51-1.13-1.131-1.13h-.32a1.13 1.13 0 0 0-1.13 1.13v1.94a4.618 4.618 0 0 0-4.154 4.59v2.642c0 2.614-.795 3.694-1.637 4.833l-.023.033h14.208c-.008-.012-.014-.023-.023-.033zm.597.847H82.053c-.6.923-1.093 2.043-1.093 3.907v.603h6.626a1.816 1.816 0 0 0 1.812 1.763h.666c.984 0 1.784-.786 1.81-1.763h6.628v-.603c0-1.864-.492-2.984-1.093-3.907zm21.014-12.934h-.624v-1.918c0-.084.067-.152.151-.152h.324a.15.15 0 0 1 .15.152v1.918zm6.767 12.087c-.838-1.14-1.633-2.22-1.633-4.833v-2.641a4.622 4.622 0 0 0-4.155-4.591v-1.94a1.13 1.13 0 0 0-1.128-1.13h-.324a1.13 1.13 0 0 0-1.129 1.13v1.94a4.62 4.62 0 0 0-4.154 4.59v2.642c0 2.614-.795 3.694-1.635 4.833a.285.285 0 0 0-.025.033h14.207a.107.107 0 0 0-.024-.033zm.597.847h-15.354c-.6.923-1.093 2.043-1.093 3.907v.603h6.626a1.815 1.815 0 0 0 1.811 1.763h.666c.985 0 1.784-.786 1.814-1.763h6.624v-.603c0-1.864-.492-2.984-1.094-3.907zm-21.477 1.305a.153.153 0 0 1-.152.154h-.322a.152.152 0 0 1-.15-.154v-1.917h.623v1.917zm6.79-14.036H96.894l.022.03c.841 1.144 1.634 2.219 1.634 4.834v2.643a4.621 4.621 0 0 0 4.158 4.589v1.94c0 .625.505 1.13 1.128 1.13h.322a1.13 1.13 0 0 0 1.13-1.13v-1.94a4.618 4.618 0 0 0 4.153-4.59V75.34c0-2.615.798-3.69 1.637-4.834.007-.01.013-.02.022-.03zm1.666-4.722v-.602h-6.625a1.816 1.816 0 0 0-1.812-1.765h-.665c-.985 0-1.786.788-1.812 1.765h-6.625v.602c0 1.864.492 2.983 1.091 3.906h15.358c.6-.923 1.09-2.042 1.09-3.906zm-10.258-6.604c-.44-.438-.788-.936-1.101-1.464a10.363 10.363 0 0 1-.79-1.66 12.25 12.25 0 0 1-.73-3.632c-.121-2.493.477-4.978 1.469-7.22.125-.28.255-.559.389-.834l.392-.787c.253-.518.505-1.042.749-1.566.486-1.05.946-2.109 1.36-3.183a33.41 33.41 0 0 0 .586-1.624c.185-.544.352-1.093.489-1.649.144-.556.268-1.118.347-1.684.043-.284.076-.569.089-.854a4.818 4.818 0 0 0-.011-.843l-.002-.023a.14.14 0 0 1 .122-.154.14.14 0 0 1 .143.083c.262.595.337 1.2.39 1.814.042.613.03 1.228-.02 1.837a19.386 19.386 0 0 1-.674 3.58 29.062 29.062 0 0 1-1.204 3.412 35.65 35.65 0 0 1-.74 1.646l-.392.8c-.127.253-.25.51-.366.766-.935 2.057-1.568 4.24-1.68 6.48a13.242 13.242 0 0 0 .244 3.36c.226 1.107.594 2.217 1.156 3.223l.006.01a.142.142 0 0 1-.054.19.141.141 0 0 1-.167-.024"/><path d="M105.468 59.123a4.828 4.828 0 0 1-.844-.993 6.73 6.73 0 0 1-.616-1.159 8.284 8.284 0 0 1-.604-2.586c-.133-1.79.28-3.584.984-5.187.089-.201.18-.4.277-.596l.276-.55.527-1.086c.345-.726.679-1.456.988-2.193a25.19 25.19 0 0 0 .83-2.245c.23-.758.448-1.55.454-2.346v-.021c0-.054.046-.097.099-.097a.102.102 0 0 1 .086.052c.219.41.299.84.363 1.276.056.436.068.875.05 1.309a12.388 12.388 0 0 1-.394 2.565 18.528 18.528 0 0 1-.812 2.434c-.162.395-.331.783-.516 1.168l-.274.565c-.088.173-.173.349-.253.525-.648 1.413-1.101 2.894-1.225 4.424a9.916 9.916 0 0 0 .08 2.318c.119.774.33 1.56.674 2.299l.005.009a.1.1 0 0 1-.048.131.1.1 0 0 1-.107-.016M69.15 190.57v-.024c0-2.45 1.875-4.372 4.422-4.372 1.718 0 2.823.72 3.567 1.742l-1.752 1.358c-.48-.59-1.034-.985-1.838-.985-1.178 0-2.008 1.008-2.008 2.235v.022c0 1.263.83 2.249 2.008 2.249.875 0 1.393-.41 1.897-1.022l1.754 1.25c-.793 1.092-1.862 1.897-3.712 1.897-2.403 0-4.338-1.837-4.338-4.35m19.056 0v-.024c0-1.225-.865-2.27-2.151-2.27-1.285 0-2.14 1.033-2.14 2.248v.022c0 1.214.878 2.27 2.164 2.27 1.274 0 2.127-1.032 2.127-2.245m-6.668 0v-.025c0-2.415 1.945-4.372 4.54-4.372 2.596 0 4.519 1.934 4.519 4.35v.022c0 2.416-1.946 4.374-4.542 4.374-2.595 0-4.517-1.934-4.517-4.35m14.104-4.228h6.729v2.042h-4.398v1.43h3.977v1.935h-3.977v3.003h-2.331zm11.641 0h6.728v2.042h-4.397v1.43h3.977v1.935h-3.977v3.003h-2.331zm11.641 0h6.764v1.97h-4.457v1.286h4.037v1.838h-4.037v1.334h4.517v1.982h-6.824zm11.87 0h6.765v1.97h-4.458v1.286h4.036v1.838h-4.036v1.334h4.518v1.982h-6.825z" mask="url(#b)"/></g></g></svg>