<svg width="372" height="44" viewBox="0 0 372 44" xmlns="http://www.w3.org/2000/svg"><g fill="none" fill-rule="evenodd"><path d="M17.877 25.189l6.862 1.494c-.592 2.738-1.992 4.947-4.201 6.627-2.21 1.681-4.792 2.521-7.748 2.521-3.579 0-6.605-1.159-9.079-3.478C1.237 30.035 0 27.056 0 23.415c0-3.61 1.237-6.582 3.711-8.915 2.474-2.334 5.5-3.501 9.079-3.501 2.893 0 5.445.825 7.654 2.474 2.21 1.649 3.641 3.827 4.295 6.535l-7.002 1.68c-.311-1.369-.903-2.404-1.774-3.104-.871-.7-1.929-1.05-3.173-1.05-1.681 0-3.035.552-4.061 1.657-1.027 1.104-1.541 2.513-1.541 4.224 0 1.743.514 3.158 1.541 4.248 1.026 1.089 2.38 1.634 4.061 1.634 2.613 0 4.309-1.369 5.087-4.108m25.979 2.59c1.136-1.136 1.704-2.59 1.704-4.364 0-1.743-.568-3.189-1.704-4.341-1.136-1.151-2.482-1.727-4.038-1.727-1.649 0-3.003.568-4.061 1.704-1.058 1.135-1.587 2.59-1.587 4.364 0 1.805.529 3.268 1.587 4.388 1.058 1.12 2.412 1.68 4.061 1.68 1.556 0 2.902-.568 4.038-1.704zm9.172 7.352H45.56v-1.867c-1.899 1.712-4.326 2.567-7.282 2.567-3.174 0-5.874-1.159-8.098-3.478-2.225-2.318-3.338-5.297-3.338-8.938 0-3.61 1.113-6.582 3.338-8.915 2.224-2.334 4.924-3.501 8.098-3.501 2.956 0 5.383.856 7.282 2.567v-1.867h7.468v23.432zm23.785-21.448c1.665 1.789 2.497 4.147 2.497 7.071v14.377h-7.421V22.342c0-1.37-.373-2.482-1.12-3.338-.748-.856-1.712-1.283-2.895-1.283-1.524 0-2.714.536-3.57 1.61-.856 1.073-1.284 2.715-1.284 4.925v10.875h-7.468V11.699h7.468v2.24c1.867-1.96 4.263-2.94 7.188-2.94 2.739 0 4.94.894 6.605 2.684" fill="#FFF"/><path d="M110.449 26.145c1.058-1.01 1.587-2.294 1.587-3.85 0-1.525-.529-2.793-1.587-3.804-1.058-1.012-2.35-1.517-3.874-1.517-1.65 0-2.995.498-4.038 1.493-1.042.996-1.564 2.272-1.564 3.828s.529 2.84 1.588 3.85c1.057 1.012 2.396 1.518 4.014 1.518 1.524 0 2.816-.506 3.874-1.518zm8.915 6.652c0 3.516-1.206 6.263-3.617 8.239-2.412 1.976-5.579 2.964-9.499 2.964-5.57 0-9.491-1.883-11.763-5.649l6.208-3.36c.903 1.089 1.751 1.844 2.544 2.264.794.42 1.782.63 2.964.63 1.743 0 3.151-.498 4.224-1.493 1.074-.997 1.611-2.397 1.611-4.202v-.653c-1.743 1.493-4.092 2.24-7.048 2.24-3.112 0-5.773-1.096-7.982-3.291-2.21-2.193-3.314-4.924-3.314-8.191 0-3.205 1.104-5.889 3.314-8.052 2.209-2.163 4.87-3.244 7.982-3.244 2.956 0 5.305.747 7.048 2.241v-1.541h7.328v21.098zm11.673-14.75c-.934.654-1.572 1.556-1.914 2.707h9.662c-.342-1.213-.933-2.131-1.774-2.754-.84-.622-1.82-.933-2.94-.933-1.09 0-2.101.326-3.034.98zm15.123 7.282h-17.177c.311 1.4.918 2.505 1.82 3.314.903.809 1.976 1.213 3.221 1.213 2.334 0 3.998-.902 4.995-2.707l6.627 1.354c-.995 2.428-2.497 4.256-4.504 5.484-2.007 1.23-4.38 1.844-7.118 1.844-3.454 0-6.379-1.159-8.775-3.478-2.396-2.318-3.594-5.297-3.594-8.938 0-3.61 1.198-6.582 3.594-8.915 2.396-2.334 5.336-3.501 8.822-3.501 3.391 0 6.239 1.136 8.541 3.407 2.303 2.272 3.486 5.275 3.548 9.009v1.914zm21.241 8.775c-2.147 1.152-4.278 1.727-6.394 1.727-2.956 0-5.251-.793-6.885-2.38-1.634-1.588-2.451-3.905-2.451-6.955v-8.869h-4.247v-5.928h4.247V4.791h7.469v6.908h6.908v5.928h-6.908v8.122c0 2.271 1.042 3.407 3.127 3.407 1.183 0 2.318-.31 3.407-.933l1.727 5.881m31.044 0c-2.147 1.152-4.278 1.727-6.394 1.727-2.956 0-5.251-.793-6.885-2.38-1.634-1.588-2.451-3.905-2.451-6.955v-8.869h-4.247v-5.928h4.247V4.791h7.469v6.908h6.908v5.928h-6.908v8.122c0 2.271 1.042 3.407 3.127 3.407 1.183 0 2.318-.31 3.407-.933l1.727 5.881m23.738-20.421c1.665 1.789 2.498 4.147 2.498 7.071v14.377h-7.422V22.342c0-1.37-.373-2.482-1.12-3.338-.747-.856-1.727-1.283-2.941-1.283-1.493 0-2.668.544-3.524 1.633-.856 1.089-1.284 2.723-1.284 4.902v10.875h-7.468V1.523h7.468v12.416c1.899-1.96 4.31-2.94 7.235-2.94 2.708 0 4.894.894 6.558 2.684m14.357 4.364c-.934.654-1.572 1.556-1.914 2.707h9.662c-.342-1.213-.934-2.131-1.774-2.754-.84-.622-1.82-.933-2.94-.933-1.09 0-2.101.326-3.034.98zm15.123 7.282h-17.177c.311 1.4.918 2.505 1.82 3.314.902.809 1.976 1.213 3.221 1.213 2.334 0 3.998-.902 4.994-2.707l6.628 1.354c-.995 2.428-2.497 4.256-4.504 5.484-2.007 1.23-4.38 1.844-7.118 1.844-3.454 0-6.379-1.159-8.775-3.478-2.397-2.318-3.594-5.297-3.594-8.938 0-3.61 1.197-6.582 3.594-8.915 2.396-2.334 5.336-3.501 8.822-3.501 3.391 0 6.239 1.136 8.541 3.407 2.303 2.272 3.486 5.275 3.548 9.009v1.914zm20.402 2.193c.311 1.836 1.696 2.754 4.155 2.754.933 0 1.672-.178 2.217-.536.544-.358.816-.802.816-1.331 0-.871-.777-1.446-2.333-1.726l-4.761-.934c-4.543-.84-6.815-3.111-6.815-6.815 0-2.396.933-4.317 2.801-5.765 1.867-1.446 4.294-2.17 7.281-2.17 2.863 0 5.236.607 7.118 1.82 1.883 1.214 3.058 2.847 3.524 4.902l-6.815 1.353c-.124-.778-.536-1.431-1.236-1.96-.701-.53-1.595-.794-2.684-.794-.934 0-1.611.179-2.031.537-.42.358-.63.786-.63 1.284 0 .84.591 1.384 1.774 1.633l5.508 1.12c2.147.467 3.765 1.315 4.854 2.544 1.089 1.23 1.634 2.731 1.634 4.505 0 2.521-.981 4.465-2.941 5.834-1.96 1.369-4.527 2.054-7.702 2.054-2.956 0-5.437-.567-7.445-1.703-2.006-1.136-3.197-2.84-3.57-5.111l7.281-1.495m36.178 6.582c-2.147 1.152-4.278 1.727-6.394 1.727-2.956 0-5.251-.793-6.885-2.38-1.634-1.588-2.451-3.905-2.451-6.955v-8.869h-4.247v-5.928h4.247V4.791h7.468v6.908h6.909v5.928h-6.909v8.122c0 2.271 1.043 3.407 3.128 3.407 1.183 0 2.318-.31 3.407-.933l1.727 5.881m17.39-6.325c1.136-1.136 1.704-2.59 1.704-4.364 0-1.743-.568-3.189-1.704-4.341-1.135-1.151-2.482-1.727-4.037-1.727-1.65 0-3.003.568-4.061 1.704-1.058 1.135-1.587 2.59-1.587 4.364 0 1.805.529 3.268 1.587 4.388 1.058 1.12 2.411 1.68 4.061 1.68 1.555 0 2.902-.568 4.037-1.704zm9.172 7.352h-7.468v-1.867c-1.899 1.712-4.325 2.567-7.282 2.567-3.174 0-5.873-1.159-8.098-3.478-2.225-2.318-3.337-5.297-3.337-8.938 0-3.61 1.112-6.582 3.337-8.915 2.225-2.334 4.924-3.501 8.098-3.501 2.957 0 5.383.856 7.282 2.567v-1.867h7.468v23.432zm19.702-23.432v5.928h-6.442v17.504h-7.421V17.627h-3.361v-5.928h3.361v-1.82c0-2.738.863-4.924 2.59-6.558 1.727-1.634 4.007-2.451 6.839-2.451 1.587 0 3.127.327 4.62.981l-1.587 5.787c-.746-.249-1.416-.373-2.006-.373-.903 0-1.634.264-2.194.794-.56.528-.841 1.244-.841 2.147v1.493h6.442" fill="#000F10"/><path d="M371.36 11.699v5.928h-6.441v17.504h-7.422V17.627h-3.361v-5.928h3.361v-1.82c0-2.738.863-4.924 2.591-6.558 1.726-1.634 4.006-2.451 6.838-2.451 1.587 0 3.127.327 4.621.981l-1.587 5.787c-.747-.249-1.416-.373-2.008-.373-.902 0-1.634.264-2.193.794-.561.528-.84 1.244-.84 2.147v1.493h6.441" fill="#000F10"/></g></svg>