<svg width="220" height="81" viewBox="0 0 220 81" xmlns="http://www.w3.org/2000/svg"><g fill="none" fill-rule="evenodd"><path d="M0 0h220v81H0z"/><path d="M30.776 46h-4.272V34.976h4.272c3.136 0 4.96 2.4 4.96 5.536 0 3.12-1.824 5.488-4.96 5.488zm-2.784-1.392h2.784c2.288 0 3.472-1.776 3.472-4.096 0-2.32-1.184-4.144-3.472-4.144h-2.784v8.24zM38.76 41.68h4.64c-.176-1.248-1.072-2-2.272-2-1.232 0-2.192.752-2.368 2zm6.08.56c0 .176 0 .416-.016.576H38.76c.176 1.248 1.152 2.032 2.416 2.032.896 0 1.728-.416 2.144-1.152.384.16.848.32 1.248.48-.64 1.312-2 1.984-3.44 1.984-2.128 0-3.824-1.552-3.824-3.92s1.696-3.872 3.824-3.872 3.712 1.504 3.712 3.872zm.768-3.712L48.712 46h1.408-.016l3.12-7.472h-1.552l-2.256 5.616-2.272-5.616h-1.536zm9.888 3.152h4.64c-.176-1.248-1.072-2-2.272-2-1.232 0-2.192.752-2.368 2zm6.08.56c0 .176 0 .416-.016.576h-6.064c.176 1.248 1.152 2.032 2.416 2.032.896 0 1.728-.416 2.144-1.152.384.16.848.32 1.248.48-.64 1.312-2 1.984-3.44 1.984-2.128 0-3.824-1.552-3.824-3.92s1.696-3.872 3.824-3.872 3.712 1.504 3.712 3.872zm1.856-7.776V46h1.456V34.464h-1.456zm7.296 11.696c-2.128 0-3.904-1.552-3.904-3.92s1.776-3.872 3.904-3.872 3.92 1.504 3.92 3.872-1.792 3.92-3.92 3.92zm0-1.408c1.344 0 2.464-.992 2.464-2.512 0-1.504-1.12-2.448-2.464-2.448-1.344 0-2.464.944-2.464 2.448 0 1.52 1.12 2.512 2.464 2.512zm7.312-6.224v1.168c.496-.848 1.568-1.328 2.608-1.328 2.048 0 3.744 1.552 3.744 3.92s-1.696 3.872-3.744 3.872c-1.04 0-2.112-.416-2.608-1.28v4.752h-1.456V38.528h1.456zm.016 3.776c0 1.6 1.248 2.432 2.448 2.432 1.344 0 2.416-.944 2.416-2.432s-1.072-2.512-2.416-2.512c-1.312 0-2.448.928-2.448 2.512zm9.232-.624h4.64c-.176-1.248-1.072-2-2.272-2-1.232 0-2.192.752-2.368 2zm6.08.56c0 .176 0 .416-.016.576h-6.064c.176 1.248 1.152 2.032 2.416 2.032.896 0 1.728-.416 2.144-1.152.384.16.848.32 1.248.48-.64 1.312-2 1.984-3.44 1.984-2.128 0-3.824-1.552-3.824-3.92s1.696-3.872 3.824-3.872 3.712 1.504 3.712 3.872zm3.312 1.04V46h-1.456v-7.472h1.456v1.68c.384-1.312 1.104-1.84 2.08-1.84.528 0 1.088.144 1.296.288l-.224 1.36a2.6 2.6 0 0 0-1.104-.256c-1.44 0-2.048 1.536-2.048 3.52zm4.016 4.736l-1.024-.336c.624-.864 1.12-2 1.088-3.52h1.536c-.144 1.984-.912 3.296-1.6 3.856zM113.448 46h-4.272V34.976h4.272c3.136 0 4.96 2.4 4.96 5.536 0 3.12-1.824 5.488-4.96 5.488zm-2.784-1.392h2.784c2.288 0 3.472-1.776 3.472-4.096 0-2.32-1.184-4.144-3.472-4.144h-2.784v8.24zm10.768-2.928h4.64c-.176-1.248-1.072-2-2.272-2-1.232 0-2.192.752-2.368 2zm6.08.56c0 .176 0 .416-.016.576h-6.064c.176 1.248 1.152 2.032 2.416 2.032.896 0 1.728-.416 2.144-1.152.384.16.848.32 1.248.48-.64 1.312-2 1.984-3.44 1.984-2.128 0-3.824-1.552-3.824-3.92s1.696-3.872 3.824-3.872 3.712 1.504 3.712 3.872zm3.552.464l1.024.24c.544.128 1.008.4.992.944-.016.544-.464.928-1.136.976-.48.032-.864-.064-1.184-.256a1.157 1.157 0 0 1-.608-.848h-1.328c.048 1.536 1.44 2.4 2.784 2.4 1.552 0 2.896-.848 2.896-2.24 0-.848-.384-1.792-1.936-2.176l-1.104-.272c-.384-.112-.736-.272-.88-.576-.08-.176-.08-.352-.016-.592.112-.4.576-.672 1.12-.672.576 0 1.088.288 1.168.848h1.392c-.128-1.52-1.328-2.112-2.592-2.112-1.328 0-2.48.816-2.592 1.904-.128 1.376.64 2.064 2 2.432zM137.832 46h-1.44v-7.472h1.44V46zm-1.728-10.224c0-.544.464-.944 1.008-.944.56 0 1.008.4 1.008.944 0 .544-.448.944-1.008.944-.544 0-1.008-.4-1.008-.944zm5.28 11.296c.448.832 1.328 1.28 2.16 1.28 1.616 0 2.656-.912 2.656-3.392 0-.064-.016-.112-.016-.176-.448.88-1.584 1.376-2.624 1.376-2.048 0-3.792-1.504-3.792-3.872 0-2.384 1.744-3.92 3.792-3.92 1.04 0 2.128.464 2.624 1.328v-1.168h1.44v6.336c0 3.52-1.616 4.864-4.08 4.864-1.376 0-2.656-.704-3.376-2.016.192-.08 1.024-.544 1.216-.64zm4.784-4.8c0-1.6-1.152-2.48-2.48-2.48-1.344 0-2.432 1.024-2.432 2.48 0 1.52 1.088 2.464 2.432 2.464 1.2 0 2.48-.88 2.48-2.464zm5.328-.304c0-1.584 1.056-2.176 2.112-2.176 1.024 0 1.648.736 1.648 1.984V46h1.456v-4.32c0-2.096-1.024-3.312-2.88-3.312-.816 0-1.888.384-2.336 1.28v-1.12h-1.456V46h1.456v-4.032zm8.512-.288h4.64c-.176-1.248-1.072-2-2.272-2-1.232 0-2.192.752-2.368 2zm6.08.56c0 .176 0 .416-.016.576h-6.064c.176 1.248 1.152 2.032 2.416 2.032.896 0 1.728-.416 2.144-1.152.384.16.848.32 1.248.48-.64 1.312-2 1.984-3.44 1.984-2.128 0-3.824-1.552-3.824-3.92s1.696-3.872 3.824-3.872 3.712 1.504 3.712 3.872zm3.312 1.04c0-1.984.608-3.52 2.048-3.52a2.6 2.6 0 0 1 1.104.256l.224-1.36c-.208-.144-.768-.288-1.296-.288-.976 0-1.696.528-2.08 1.84v-1.68h-1.456V46h1.456v-2.72zM29.528 58.248h2.16v-1.424h1.376v1.44h1.392v1.168h-1.392v2.192c0 1.2.224 2.176 1.664 2.176v1.344c-1.2 0-2.112-.496-2.528-1.184-.56.768-1.616 1.184-2.72 1.184-2.128 0-3.6-1.552-3.6-3.52 0-1.2.624-2.272 1.632-2.912-.512-.48-.784-1.216-.784-1.984 0-1.52 1.248-2.752 2.864-2.752 1.12 0 2.112.64 2.656 1.568l-1.184.736c-.32-.544-.864-.912-1.472-.912-.848 0-1.472.576-1.472 1.36 0 .768.576 1.52 1.408 1.52zm2.16 1.184h-2.192a2.223 2.223 0 0 0-2.224 2.192c0 1.2.88 2.128 2.208 2.128 1.264 0 2.16-.88 2.208-2.032v-2.288zm16.64-2.608c0 .928-.352 1.904-1.392 2.304 1.232.256 1.984 1.584 1.984 2.688 0 1.712-1.2 3.184-3.232 3.184h-4.512V53.976h4.16c1.84 0 2.992 1.104 2.992 2.848zm-5.648 1.728h2.656c.976 0 1.472-.784 1.472-1.68 0-.96-.64-1.52-1.632-1.52H42.68v3.2zm2.896 1.312H42.68v3.744h2.944c1.088 0 1.76-.88 1.76-1.808 0-.88-.688-1.936-1.808-1.936zm6.816 2.416c0-1.984.608-3.52 2.048-3.52a2.6 2.6 0 0 1 1.104.256l.224-1.36c-.208-.144-.768-.288-1.296-.288-.976 0-1.696.528-2.08 1.84v-1.68h-1.456V65h1.456v-2.72zM62.984 65v-1.152c-.496.848-1.584 1.312-2.624 1.312-2.048 0-3.792-1.536-3.792-3.904 0-2.384 1.744-3.888 3.792-3.888 1.04 0 2.128.432 2.624 1.28v-1.12h1.44V65h-1.44zm-.016-3.76c0-1.6-1.28-2.448-2.48-2.448-1.344 0-2.432.96-2.432 2.448 0 1.472 1.088 2.496 2.432 2.496 1.328 0 2.48-.912 2.48-2.496zm5.344-.272c0-1.584 1.056-2.176 2.112-2.176 1.024 0 1.648.736 1.648 1.984V65h1.456v-4.32c0-2.096-1.024-3.312-2.88-3.312-.816 0-1.888.384-2.336 1.28v-1.12h-1.456V65h1.456v-4.032zM81.768 65v-1.152c-.496.848-1.584 1.312-2.624 1.312-2.048 0-3.776-1.536-3.776-3.904 0-2.384 1.712-3.888 3.76-3.888 1.104 0 2.144.432 2.64 1.28v-5.184h1.456V65h-1.456zm-.016-3.76c0-1.6-1.28-2.448-2.48-2.448-1.344 0-2.416.96-2.416 2.448 0 1.472 1.072 2.496 2.416 2.496 1.312 0 2.48-.912 2.48-2.496zm16.272 1.072a3.988 3.988 0 0 1-3.056 1.408c-2.304 0-4.096-1.872-4.096-4.208 0-2.336 1.792-4.224 4.096-4.224 1.216 0 2.272.544 3.024 1.36l1.12-.928c-.976-1.152-2.448-1.872-4.144-1.872-3.12 0-5.584 2.528-5.584 5.664 0 3.12 2.464 5.648 5.584 5.648 1.712 0 3.2-.736 4.176-1.904l-1.12-.944zm6.128 2.848c-2.128 0-3.904-1.552-3.904-3.92s1.776-3.872 3.904-3.872 3.92 1.504 3.92 3.872-1.792 3.92-3.92 3.92zm0-1.408c1.344 0 2.464-.992 2.464-2.512 0-1.504-1.12-2.448-2.464-2.448-1.344 0-2.464.944-2.464 2.448 0 1.52 1.12 2.512 2.464 2.512zm7.312-2.784c0-1.584 1.056-2.176 2.112-2.176 1.024 0 1.648.736 1.648 1.984V65h1.456v-4.32c0-2.096-1.024-3.312-2.88-3.312-.816 0-1.888.384-2.336 1.28v-1.12h-1.456V65h1.456v-4.032zm9.248.736l1.024.24c.544.128 1.008.4.992.944-.016.544-.464.928-1.136.976-.48.032-.864-.064-1.184-.256a1.157 1.157 0 0 1-.608-.848h-1.328c.048 1.536 1.44 2.4 2.784 2.4 1.552 0 2.896-.848 2.896-2.24 0-.848-.384-1.792-1.936-2.176l-1.104-.272c-.384-.112-.736-.272-.88-.576-.08-.176-.08-.352-.016-.592.112-.4.576-.672 1.12-.672.576 0 1.088.288 1.168.848h1.392c-.128-1.52-1.328-2.112-2.592-2.112-1.328 0-2.48.816-2.592 1.904-.128 1.376.64 2.064 2 2.432zm10.432-.144c0 1.6-1.056 2.176-2.112 2.176-1.024 0-1.632-.736-1.632-1.984v-4.224h-1.456v4.32c-.016 2.096 1.008 3.312 2.88 3.312.816 0 1.872-.384 2.32-1.28V65h1.456v-7.472h-1.456v4.032zm3.888-8.096V65h1.456V53.464h-1.456zm5.904 4.064v-2.816h-1.456v2.816h-1.344v1.232h1.344V65h1.456v-6.24h1.584v-1.232h-1.584zm9.04 7.472v-1.152c-.496.848-1.584 1.312-2.624 1.312-2.048 0-3.792-1.536-3.792-3.904 0-2.384 1.744-3.888 3.792-3.888 1.04 0 2.128.432 2.624 1.28v-1.12h1.44V65h-1.44zm-.016-3.76c0-1.6-1.28-2.448-2.48-2.448-1.344 0-2.432.96-2.432 2.448 0 1.472 1.088 2.496 2.432 2.496 1.328 0 2.48-.912 2.48-2.496zm5.344-.272c0-1.584 1.056-2.176 2.112-2.176 1.024 0 1.648.736 1.648 1.984V65h1.456v-4.32c0-2.096-1.024-3.312-2.88-3.312-.816 0-1.888.384-2.336 1.28v-1.12h-1.456V65h1.456v-4.032zm9.568-3.44v-2.816h-1.456v2.816h-1.344v1.232h1.344V65h1.456v-6.24h1.584v-1.232h-1.584z" fill="#555B6E"/><text font-family="SofiaProRegular, Sofia Pro" font-size="16" fill="#FFF" transform="translate(0 -500)"><tspan x="25" y="527">Tom Skarbek-Wazynski</tspan></text></g></svg>