<svg width="410" height="64" viewBox="0 0 410 64" xmlns="http://www.w3.org/2000/svg" xmlns:xlink="http://www.w3.org/1999/xlink"><defs><path id="a" d="M409.2427 0.84L0 0.84 0 63.1146 409.2427 63.1146 409.2427 0.84z"/></defs><g transform="translate(0 -1)" fill="none" fill-rule="evenodd"><g transform="translate(0 .16)"><mask id="b" fill="#fff"><use xlink:href="#a"/></mask><path d="M382.492 47.517h26.75v-5.875h-20.146V27.33h18.869v-5.905h-.387v-.005h-18.482V7.376h19.525V1.508h-.381v-.01h-26.126v46.014h.378v.005zM203.095 27.524h25.723v20.054h6.766V1.508h-.17v-.01h-6.596V21.42h-25.723V1.508h-.17v-.01h-6.598v46.08h6.768V27.524zM140.1 24.988l23.374 22.59h9.173l-24.895-24.205 19.986-21.865h-.185l.01-.01h-8.241L140.1 22.384V1.508h-.177v-.01h-6.597v46.08h6.774v-22.59zm-17.393-23.48h-.144v-.01h-6.598v46.08h6.742V1.508zM63.376 28.05l6.855-16.584 7.387 16.584H63.376zM93.31 47.578L72.644 1.24h-.081l-.001-.007h-4.637L48.133 47.578h6.873l5.755-13.652H80.33l6.142 13.652h6.839zm-50.311 0V1.508h-.054v-.01h-6.168L21.583 20.392 6.299 1.508h-.046l-.007-.01H0v46.08h6.652V11.79l14.277 17.745h.053l.003.002h1.218l14.112-17.74v35.78H43zM250.792 24.69c0-5.123 1.695-9.335 5.092-12.631 3.383-3.292 7.693-4.937 12.94-4.948 4.962.024 9.15 1.684 12.565 4.993 3.438 3.33 5.156 7.437 5.156 12.32 0 5.012-1.718 9.202-5.156 12.567-3.426 3.353-7.698 5.03-12.814 5.044-5.07-.024-9.294-1.67-12.673-4.94-3.41-3.3-5.11-7.432-5.11-12.405zm17.352 23.415c.038 0 .075.005.113.005 7.273 0 13.3-2.227 18.08-6.676 4.78-4.458 7.17-10.082 7.17-16.875 0-6.794-2.37-12.442-7.103-16.954-4.74-4.51-10.667-6.765-17.787-6.765-.027 0-.055.004-.082.004-.026 0-.053-.004-.08-.004-7.12 0-13.011 2.252-17.668 6.76-4.661 4.51-6.987 10.205-6.987 17.087 0 6.708 2.312 12.288 6.936 16.74 4.628 4.454 10.413 6.68 17.356 6.68l.052-.002zM92.736 63.11c.02 0 .059.005.077.005 2.729 0 5.059-.606 7-1.83 1.93-1.211 3.332-2.843 4.205-4.875.867-2.04 1.3-5.171 1.3-9.42V1.509h-.117v-.01h-6.596v44.727c0 3.783-.292 6.258-.874 7.422-.583 1.166-1.375 1.979-2.375 2.44-1.001.464-2.446.693-4.337.693h-1.682l1.219 6.136c1.012.133 1.727.197 2.144.197.012 0 .023-.003.036-.003zm210.589-22.936a14.997 14.997 0 0 0 2.787 3.249c3.626 3.12 8.443 4.684 14.445 4.684l.09-.002c.053 0 .104.005.16.005 5.894 0 10.669-1.572 14.319-4.721a14.349 14.349 0 0 0 2.79-3.215c.75-1.193 1.394-2.694 1.908-4.501.523-1.801.78-4.472.78-8.016V1.507h-.255v-.01h-6.63v26.16c0 3.626-.286 6.189-.858 7.683-.571 1.497-1.506 2.794-2.802 3.893-2.447 2.03-5.61 3.047-9.485 3.062-2.676-.022-5.008-.528-6.984-1.526-2.031-1.018-3.53-2.376-4.522-4.07-.988-1.694-1.486-4.708-1.486-9.042V1.507h-.25v-.01h-6.63v26.094c0 3.716.247 6.44.744 8.178.492 1.739 1.119 3.205 1.879 4.405zm53.506-14.95l5.015 3.047c4.045 2.516 6.068 5.177 6.068 7.983 0 1.73-.688 3.17-2.061 4.32-1.345 1.125-3.025 1.693-5.032 1.717-4.61-.063-8.668-2.304-12.183-6.754v.362c-.105-.127-.213-.237-.318-.367v8.377c3.74 2.797 7.885 4.198 12.436 4.198.05 0 .094-.01.145-.011.059 0 .114.014.173.014 3.959 0 7.173-1.154 9.65-3.46 2.473-2.312 3.709-5.315 3.709-9.003 0-5.195-2.812-9.471-8.432-12.824l-5.04-2.985c-2.261-1.321-3.9-2.585-4.92-3.791-1.02-1.2-1.526-2.5-1.526-3.88 0-1.547.69-2.831 2.075-3.825 1.35-.973 3.077-1.467 5.164-1.491 3.759.048 7.277 1.636 10.548 4.782v-.278c.103.097.208.178.31.278V4.148C369.407 1.99 365.877.91 362.035.91c-.045 0-.082.009-.125.009-.065 0-.13-.014-.194-.014-4.025 0-7.298 1.13-9.816 3.395-2.515 2.268-3.777 5.214-3.777 8.84 0 2.422.666 4.558 1.998 6.417 1.329 1.856 3.565 3.747 6.71 5.666z" fill="#FFFFFE" mask="url(#b)"/></g><path d="M.217 64.031h5.809v-1.275H1.65v-3.109h4.097v-1.282H1.65v-3.05h4.24v-1.276H.217v9.992zm11.13-2.445c0 .376-.15.69-.447.94-.298.248-.672.373-1.121.373-1.017 0-1.912-.49-2.686-1.47v1.82a4.4 4.4 0 0 0 2.7.911c.86 0 1.558-.25 2.096-.752.537-.502.805-1.153.805-1.956 0-1.126-.61-2.054-1.83-2.783L9.77 58.02c-.492-.287-.848-.56-1.07-.823-.221-.262-.332-.542-.332-.842 0-.338.15-.614.45-.83.302-.218.686-.326 1.155-.326.83 0 1.606.347 2.327 1.041v-1.626a4.024 4.024 0 0 0-2.3-.704c-.873 0-1.583.246-2.13.738-.547.491-.82 1.132-.82 1.92 0 .525.145.988.434 1.393.288.403.774.813 1.457 1.23l1.089.661c.878.547 1.318 1.124 1.318 1.734zm2.07-6.286h3.432v8.745h1.439V55.3h3.489v-1.275h-8.36V55.3zm7.758 7.4a.837.837 0 0 0-.251.615c0 .238.084.44.25.601a.847.847 0 0 0 .617.244.871.871 0 0 0 .627-.244.8.8 0 0 0 .254-.6.824.824 0 0 0-.258-.617.863.863 0 0 0-.623-.25.837.837 0 0 0-.616.25zm7.807 1.345h1.433V54.04h-1.433v10.006zm9.999-2.804c.755-1.239 1.132-2.465 1.132-3.679 0-1.068-.301-1.945-.903-2.629-.601-.68-1.375-1.023-2.32-1.023-.841 0-1.552.29-2.135.867a2.864 2.864 0 0 0-.874 2.112c0 .797.274 1.481.82 2.048.547.57 1.203.854 1.967.854.61 0 1.143-.14 1.597-.423-.186.702-.556 1.386-1.11 2.052a8.229 8.229 0 0 1-1.941 1.701l.88 1.04c1.17-.708 2.133-1.68 2.887-2.92zm-2.005-2.769c-.46 0-.853-.157-1.182-.472a1.504 1.504 0 0 1-.494-1.124c0-.473.15-.866.454-1.179.304-.312.687-.47 1.15-.47.506 0 .92.185 1.243.553.322.367.483.84.483 1.418 0 .113-.028.362-.086.745-.511.353-1.034.53-1.568.53zm9.34 2.77c.754-1.24 1.13-2.466 1.13-3.68 0-1.068-.3-1.945-.901-2.629-.602-.68-1.375-1.023-2.321-1.023-.84 0-1.552.29-2.134.867a2.86 2.86 0 0 0-.874 2.112c0 .797.273 1.481.82 2.048.547.57 1.202.854 1.966.854.61 0 1.144-.14 1.597-.423-.186.702-.556 1.386-1.11 2.052a8.229 8.229 0 0 1-1.941 1.701l.88 1.04c1.17-.708 2.133-1.68 2.888-2.92zm-2.006-2.77c-.458 0-.852-.157-1.182-.472-.33-.316-.494-.69-.494-1.124 0-.473.152-.866.455-1.179.303-.312.686-.47 1.15-.47.506 0 .92.185 1.242.553.323.367.484.84.484 1.418 0 .113-.03.362-.086.745-.511.353-1.034.53-1.57.53zm4.688-.564c.184.341.488.683.913 1.026-.945.55-1.418 1.333-1.418 2.352 0 .811.308 1.494.924 2.046.616.552 1.378.828 2.285.828.917 0 1.676-.27 2.278-.81.6-.54.902-1.223.902-2.05 0-1.042-.463-1.83-1.39-2.366.832-.582 1.247-1.318 1.247-2.212 0-.792-.288-1.459-.863-2-.576-.542-1.281-.812-2.117-.812-.85 0-1.568.272-2.156.82-.587.546-.881 1.211-.881 1.992 0 .45.092.845.276 1.186zm3.857-.083a1.545 1.545 0 0 1-1.11.44c-.44 0-.815-.148-1.128-.444a1.417 1.417 0 0 1-.47-1.067c0-.435.149-.79.445-1.068.296-.276.675-.416 1.139-.416.458 0 .837.142 1.135.424.298.28.448.64.448 1.073 0 .411-.153.764-.46 1.058zm.097 4.573c-.322.267-.734.401-1.236.401-.525 0-.952-.146-1.282-.437-.33-.29-.494-.668-.494-1.132 0-.464.16-.84.484-1.132.322-.29.738-.436 1.249-.436.52 0 .945.143 1.272.432.327.29.49.664.49 1.122v.143c0 .425-.161.772-.483 1.04z" fill="#FFFFFE"/></g></svg>