
<svg width="209px" height="241px" viewBox="0 0 209 241" version="1.1" xmlns="http://www.w3.org/2000/svg" xmlns:xlink="http://www.w3.org/1999/xlink">
    <!-- Generator: Sketch 47.1 (45422) - http://www.bohemiancoding.com/sketch -->
    <desc>Created with Sketch.</desc>
    <defs>
        <polygon id="path-1" points="0 241 208.167 241 208.167 0.629 0 0.629"></polygon>
    </defs>
    <g id="Page-1" stroke="none" stroke-width="1" fill="none" fill-rule="evenodd">
        <g transform="translate(0.000000, -1.000000)">
            <path d="M104.0835,1.0008 L0.0005,61.0928 L0.0005,181.2778 L104.0845,241.3708 L208.1665,181.2788 L208.1665,61.0928 L104.0865,1.0008 L104.0835,1.0008 Z M2.7395,179.6958 L2.7395,62.6748 L104.0855,4.1628 L205.4285,62.6738 L205.4285,179.6958 L104.0845,238.2078 L2.7395,179.6958 Z" id="Fill-1" fill="#ffffff"></path>
            <path d="M9.6456,175.7103 L104.0836,230.2333 L198.5226,175.7103 L198.5226,66.6613 L104.0846,12.1363 L9.6436,66.6613 L9.6456,175.7103 Z M104.0836,233.1803 L103.4456,232.8133 L7.0916,177.1833 L7.0916,65.1873 L104.0846,9.1893 L201.0766,65.1873 L201.0766,177.1833 L200.4376,177.5523 L104.0836,233.1803 Z" id="Fill-2" fill="#ffffff"></path>
            <g id="Group-49" transform="translate(0.000000, 0.371000)">
                <path d="M39.8209,102.269 C39.8209,100.065 39.0549,99.201 37.8079,99.201 L34.9319,99.201 L34.9319,123.263 L37.8079,123.263 C39.0549,123.263 39.8209,122.304 39.8209,120.194 L39.8209,102.269 Z M37.9039,129.59 L34.9319,129.59 L34.9319,156.238 L28.3189,156.238 L28.3189,92.395 L37.9039,92.395 C41.6429,92.395 46.4359,94.313 46.4359,102.462 L46.4359,119.524 C46.4359,127.672 41.6429,129.59 37.9039,129.59 Z" id="Fill-3" fill="#ffffff"></path>
                <path d="M62.2418,101.6943 C62.2418,99.9693 61.1878,98.6273 59.4628,98.6273 C57.6408,98.6273 56.6818,99.9693 56.6818,101.6943 L56.6818,146.9403 C56.6818,148.7603 57.6408,150.0073 59.4628,150.0073 C61.1878,150.0073 62.2418,148.7603 62.2418,146.9403 L62.2418,101.6943 Z M59.4628,157.0043 C54.2858,157.0043 49.9718,152.5943 49.9718,146.0763 L49.9718,102.5563 C49.9718,96.1353 54.2858,91.6293 59.4628,91.6293 C64.6388,91.6293 68.9528,96.1353 68.9528,102.5563 L68.9528,146.0763 C68.9528,152.5943 64.6388,157.0043 59.4628,157.0043 L59.4628,157.0043 Z" id="Fill-5" fill="#ffffff"></path>
                <path d="M85.0553,102.269 C85.0553,100.065 84.2893,99.201 83.0423,99.201 L80.2633,99.201 L80.2633,121.92 L82.7563,121.92 C84.1923,121.92 85.0553,120.865 85.0553,118.565 L85.0553,102.269 Z M88.6033,156.43 C86.3983,156.43 85.3443,152.595 85.3443,148.569 L85.3443,131.698 C85.3443,129.781 84.3853,128.438 82.8513,128.438 L80.2633,128.438 L80.2633,156.238 L73.5533,156.238 L73.5533,92.395 L83.2353,92.395 C86.9733,92.395 91.6703,94.313 91.6703,102.462 L91.6703,118.086 C91.6703,121.441 90.4233,123.837 87.9313,125.372 C90.4233,126.904 91.8623,129.206 91.8623,132.656 L91.8623,148.089 C91.8623,150.965 92.1493,152.978 92.9173,154.607 L92.9173,156.43 L88.6033,156.43 Z" id="Fill-7" fill="#ffffff"></path>
                <polygon id="Fill-9" fill="#ffffff" points="107.3722 99.2973 107.3722 156.2373 100.7572 156.2373 100.7572 99.2973 94.8142 99.2973 94.8142 92.3953 113.0282 92.3953 113.0282 99.2973"></polygon>
                <polygon id="Fill-11" fill="#ffffff" points="115.816 156.2377 115.816 92.3957 131.249 92.3957 131.249 99.0097 122.429 99.0097 122.429 120.0987 128.662 120.0987 128.662 126.7137 122.429 126.7137 122.429 149.6227 131.249 149.6227 131.249 156.2377"></polygon>
                <path d="M145.9327,102.269 C145.9327,100.065 145.1657,99.201 143.9187,99.201 L141.1407,99.201 L141.1407,121.92 L143.6327,121.92 C145.0697,121.92 145.9327,120.865 145.9327,118.565 L145.9327,102.269 Z M149.4797,156.43 C147.2747,156.43 146.2207,152.595 146.2207,148.569 L146.2207,131.698 C146.2207,129.781 145.2607,128.438 143.7267,128.438 L141.1407,128.438 L141.1407,156.238 L134.4317,156.238 L134.4317,92.395 L144.1107,92.395 C147.8497,92.395 152.5467,94.313 152.5467,102.462 L152.5467,118.086 C152.5467,121.441 151.3017,123.837 148.8077,125.372 C151.3017,126.904 152.7387,129.206 152.7387,132.656 L152.7387,148.089 C152.7387,150.965 153.0267,152.978 153.7937,154.607 L153.7937,156.43 L149.4797,156.43 Z" id="Fill-13" fill="#ffffff"></path>
                <path d="M154.5587,108.5956 L154.5587,106.6796 C156.0927,106.6796 157.0507,105.3366 157.0507,101.9816 L154.5587,101.9816 L154.5587,92.3956 L159.9277,92.3956 L159.9277,101.1186 C159.9277,105.4326 158.1057,108.5956 154.5587,108.5956" id="Fill-15" fill="#ffffff"></path>
                <path d="M170.4718,157.0043 C164.5278,157.0043 160.9798,152.7873 160.9798,145.6933 L160.9798,137.5453 L167.0188,137.5453 L167.0188,146.4603 C167.0188,149.0483 168.0758,150.8683 170.1838,150.8683 C172.4848,150.8683 173.5388,149.2393 173.5388,146.4603 C173.5388,140.0363 171.7168,134.5733 168.3618,127.1923 C165.3898,120.7703 161.2678,110.8973 161.2678,104.2823 C161.2678,96.9003 164.2398,91.6293 171.0458,91.6293 C176.3178,91.6293 179.6728,95.6553 179.6728,102.9413 L179.6728,111.8543 L173.7298,111.8543 L173.7298,102.4623 C173.7298,99.5843 172.7708,98.2433 171.0458,98.2433 C169.1288,98.2433 167.7868,99.4893 167.7868,102.1733 C167.7868,110.1293 169.7048,113.8683 173.3458,122.2073 C176.8948,130.1643 179.9608,138.0253 179.9608,144.7343 C179.9608,154.7033 174.3058,157.0043 170.4718,157.0043" id="Fill-17" fill="#ffffff"></path>
                <polygon id="Fill-19" fill="#ffffff" points="30.9132 163.498 28.2192 163.498 28.2192 162.115 35.1122 162.115 35.1122 163.498 32.4182 163.498 32.4182 170.61 30.9132 170.61"></polygon>
                <path d="M43.1602,166.3266 C44.2272,166.3266 44.9072,165.7686 44.9072,164.9066 L44.9072,164.8816 C44.9072,163.9716 44.2512,163.4746 43.1472,163.4746 L40.9742,163.4746 L40.9742,166.3266 L43.1602,166.3266 Z M39.4822,162.1156 L43.2682,162.1156 C44.3362,162.1156 45.1742,162.4306 45.7212,162.9646 C46.1702,163.4256 46.4242,164.0566 46.4242,164.7976 L46.4242,164.8206 C46.4242,166.2176 45.5872,167.0536 44.3962,167.3936 L46.6912,170.6106 L44.9312,170.6106 L42.8432,167.6496 L40.9742,167.6496 L40.9742,170.6106 L39.4822,170.6106 L39.4822,162.1156 Z" id="Fill-21" fill="#ffffff"></path>
                <path d="M56.1944,167.2367 L54.7264,163.8387 L53.2694,167.2367 L56.1944,167.2367 Z M54.0574,162.0547 L55.4424,162.0547 L59.1794,170.6107 L57.6024,170.6107 L56.7394,168.5597 L52.7234,168.5597 L51.8494,170.6107 L50.3204,170.6107 L54.0574,162.0547 Z" id="Fill-23" fill="#ffffff"></path>
                <path d="M66.5963,169.2514 C68.3803,169.2514 69.5443,168.0494 69.5443,166.3864 L69.5443,166.3624 C69.5443,164.6994 68.3803,163.4754 66.5963,163.4754 L64.9213,163.4754 L64.9213,169.2514 L66.5963,169.2514 Z M63.4283,162.1154 L66.5963,162.1154 C69.2663,162.1154 71.1113,163.9484 71.1113,166.3384 L71.1113,166.3624 C71.1113,168.7534 69.2663,170.6104 66.5963,170.6104 L63.4283,170.6104 L63.4283,162.1154 Z" id="Fill-25" fill="#ffffff"></path>
                <mask id="mask-2" fill="white">
                    <use xlink:href="#path-1"></use>
                </mask>
                <g id="Clip-28"></g>
                <polygon id="Fill-27" fill="#ffffff" mask="url(#mask-2)" points="75.796 170.61 77.289 170.61 77.289 162.115 75.796 162.115"></polygon>
                <polygon id="Fill-29" fill="#ffffff" mask="url(#mask-2)" points="82.3502 162.1152 83.7332 162.1152 88.2852 167.9892 88.2852 162.1152 89.7532 162.1152 89.7532 170.6102 88.5032 170.6102 83.8182 164.5672 83.8182 170.6102 82.3502 170.6102"></polygon>
                <path d="M94.3521,166.3866 L94.3521,166.3626 C94.3521,163.9836 96.1731,161.9696 98.7351,161.9696 C100.2151,161.9696 101.1261,162.3816 101.9991,163.1226 L101.0531,164.2506 C100.3971,163.6926 99.7531,163.3416 98.6731,163.3416 C97.1081,163.3416 95.9191,164.7116 95.9191,166.3386 L95.9191,166.3626 C95.9191,168.1106 97.0721,169.3966 98.8071,169.3966 C99.6081,169.3966 100.3361,169.1416 100.8581,168.7536 L100.8581,167.1636 L98.6861,167.1636 L98.6861,165.8656 L102.3031,165.8656 L102.3031,169.4336 C101.4641,170.1486 100.2641,170.7566 98.7601,170.7566 C96.1011,170.7566 94.3521,168.8626 94.3521,166.3866" id="Fill-30" fill="#ffffff" mask="url(#mask-2)"></path>
                <polygon id="Fill-31" fill="#ffffff" mask="url(#mask-2)" points="113.4688 162.1152 114.9618 162.1152 114.9618 169.2512 119.4288 169.2512 119.4288 170.6102 113.4688 170.6102"></polygon>
                <polygon id="Fill-32" fill="#ffffff" mask="url(#mask-2)" points="123.858 170.61 125.352 170.61 125.352 162.115 123.858 162.115"></polygon>
                <polygon id="Fill-33" fill="#ffffff" mask="url(#mask-2)" points="130.4102 162.1152 132.0012 162.1152 134.5862 166.1322 137.1722 162.1152 138.7622 162.1152 138.7622 170.6102 137.2702 170.6102 137.2702 164.5172 134.5862 168.5242 134.5382 168.5242 131.8802 164.5422 131.8802 170.6102 130.4102 170.6102"></polygon>
                <polygon id="Fill-34" fill="#ffffff" mask="url(#mask-2)" points="143.822 170.61 145.318 170.61 145.318 162.115 143.822 162.115"></polygon>
                <polygon id="Fill-35" fill="#ffffff" mask="url(#mask-2)" points="152.4659 163.498 149.7699 163.498 149.7699 162.115 156.6639 162.115 156.6639 163.498 153.9689 163.498 153.9689 170.61 152.4659 170.61"></polygon>
                <polygon id="Fill-36" fill="#ffffff" mask="url(#mask-2)" points="161.0333 162.1152 167.3323 162.1152 167.3323 163.4502 162.5253 163.4502 162.5253 165.6592 166.7873 165.6592 166.7873 166.9942 162.5253 166.9942 162.5253 169.2762 167.3923 169.2762 167.3923 170.6102 161.0333 170.6102"></polygon>
                <path d="M175.1231,169.2514 C176.9081,169.2514 178.0731,168.0494 178.0731,166.3864 L178.0731,166.3624 C178.0731,164.6994 176.9081,163.4754 175.1231,163.4754 L173.4501,163.4754 L173.4501,169.2514 L175.1231,169.2514 Z M171.9581,162.1154 L175.1231,162.1154 C177.7941,162.1154 179.6401,163.9484 179.6401,166.3384 L179.6401,166.3624 C179.6401,168.7534 177.7941,170.6104 175.1231,170.6104 L171.9581,170.6104 L171.9581,162.1154 Z" id="Fill-37" fill="#ffffff" mask="url(#mask-2)"></path>
                <path d="M90.0426,70.2729 L89.4196,70.2729 L89.4196,68.3549 C89.4196,68.2709 89.4866,68.2029 89.5706,68.2029 L89.8906,68.2029 C89.9756,68.2029 90.0426,68.2709 90.0426,68.3549 L90.0426,70.2729 Z M96.8116,82.3599 C95.9726,81.2209 95.1766,80.1409 95.1766,77.5269 L95.1766,74.8859 C95.1766,72.4969 93.3516,70.5259 91.0216,70.2949 L91.0216,68.3549 C91.0216,67.7309 90.5126,67.2259 89.8906,67.2259 L89.5706,67.2259 C88.9466,67.2259 88.4416,67.7309 88.4416,68.3549 L88.4416,70.2949 C86.1086,70.5259 84.2866,72.4969 84.2866,74.8859 L84.2866,77.5269 C84.2866,80.1409 83.4916,81.2209 82.6496,82.3599 C82.6416,82.3699 82.6356,82.3809 82.6266,82.3929 L96.8346,82.3929 C96.8266,82.3809 96.8206,82.3699 96.8116,82.3599 L96.8116,82.3599 Z M97.4086,83.2069 L82.0526,83.2069 C81.4526,84.1299 80.9596,85.2499 80.9596,87.1139 L80.9596,87.7169 L87.5856,87.7169 C87.6146,88.6939 88.4146,89.4799 89.3976,89.4799 L90.0636,89.4799 C91.0476,89.4799 91.8476,88.6939 91.8746,87.7169 L98.5016,87.7169 L98.5016,87.1139 C98.5016,85.2499 98.0096,84.1299 97.4086,83.2069 L97.4086,83.2069 Z" id="Fill-38" fill="#ffffff" mask="url(#mask-2)"></path>
                <path d="M118.4234,70.2729 L117.7994,70.2729 L117.7994,68.3549 C117.7994,68.2709 117.8664,68.2029 117.9504,68.2029 L118.2744,68.2029 C118.3564,68.2029 118.4234,68.2709 118.4234,68.3549 L118.4234,70.2729 Z M125.1904,82.3599 C124.3524,81.2209 123.5574,80.1409 123.5574,77.5269 L123.5574,74.8859 C123.5574,72.4969 121.7304,70.5259 119.4024,70.2949 L119.4024,68.3549 C119.4024,67.7309 118.8954,67.2259 118.2744,67.2259 L117.9504,67.2259 C117.3264,67.2259 116.8214,67.7309 116.8214,68.3549 L116.8214,70.2949 C114.4914,70.5259 112.6674,72.4969 112.6674,74.8859 L112.6674,77.5269 C112.6674,80.1409 111.8724,81.2209 111.0324,82.3599 C111.0234,82.3699 111.0154,82.3809 111.0074,82.3929 L125.2144,82.3929 C125.2084,82.3809 125.2014,82.3699 125.1904,82.3599 L125.1904,82.3599 Z M125.7874,83.2069 L110.4334,83.2069 C109.8324,84.1299 109.3404,85.2499 109.3404,87.1139 L109.3404,87.7169 L115.9664,87.7169 C115.9944,88.6939 116.7954,89.4799 117.7774,89.4799 L118.4434,89.4799 C119.4284,89.4799 120.2274,88.6939 120.2574,87.7169 L126.8814,87.7169 L126.8814,87.1139 C126.8814,85.2499 126.3894,84.1299 125.7874,83.2069 L125.7874,83.2069 Z" id="Fill-39" fill="#ffffff" mask="url(#mask-2)"></path>
                <path d="M104.3092,84.5116 C104.3092,84.5956 104.2412,84.6656 104.1582,84.6656 L103.8362,84.6656 C103.7522,84.6656 103.6862,84.5956 103.6862,84.5116 L103.6862,82.5946 L104.3092,82.5946 L104.3092,84.5116 Z M111.1002,70.4756 L96.8942,70.4756 C96.9012,70.4856 96.9082,70.4956 96.9162,70.5056 C97.7572,71.6496 98.5502,72.7246 98.5502,75.3396 L98.5502,77.9826 C98.5502,80.3696 100.3762,82.3396 102.7082,82.5716 L102.7082,84.5116 C102.7082,85.1366 103.2132,85.6416 103.8362,85.6416 L104.1582,85.6416 C104.7802,85.6416 105.2882,85.1366 105.2882,84.5116 L105.2882,82.5716 C107.6182,82.3396 109.4412,80.3696 109.4412,77.9826 L109.4412,75.3396 C109.4412,72.7246 110.2392,71.6496 111.0782,70.5056 C111.0852,70.4956 111.0912,70.4856 111.1002,70.4756 L111.1002,70.4756 Z M112.7662,65.7536 L112.7662,65.1516 L106.1412,65.1516 C106.1142,64.1746 105.3132,63.3866 104.3292,63.3866 L103.6642,63.3866 C102.6792,63.3866 101.8782,64.1746 101.8522,65.1516 L95.2272,65.1516 L95.2272,65.7536 C95.2272,67.6176 95.7192,68.7366 96.3182,69.6596 L111.6762,69.6596 C112.2762,68.7366 112.7662,67.6176 112.7662,65.7536 L112.7662,65.7536 Z" id="Fill-40" fill="#ffffff" mask="url(#mask-2)"></path>
                <path d="M102.5079,59.1503 C102.0679,58.7123 101.7199,58.2143 101.4069,57.6863 C101.0889,57.1633 100.8389,56.6003 100.6169,56.0253 C100.1939,54.8683 99.9449,53.6353 99.8879,52.3943 C99.7659,49.9013 100.3639,47.4163 101.3559,45.1743 C101.4809,44.8943 101.6109,44.6153 101.7449,44.3403 L102.1369,43.5533 C102.3899,43.0353 102.6419,42.5113 102.8859,41.9873 C103.3719,40.9373 103.8319,39.8783 104.2469,38.8043 C104.4539,38.2683 104.6529,37.7263 104.8319,37.1803 C105.0169,36.6363 105.1839,36.0873 105.3209,35.5313 C105.4649,34.9753 105.5889,34.4133 105.6679,33.8473 C105.7109,33.5633 105.7439,33.2783 105.7569,32.9933 C105.7759,32.7113 105.7759,32.4123 105.7459,32.1503 L105.7439,32.1273 C105.7359,32.0503 105.7899,31.9823 105.8659,31.9733 C105.9289,31.9673 105.9849,32.0023 106.0089,32.0563 C106.2709,32.6513 106.3459,33.2563 106.3999,33.8703 C106.4409,34.4833 106.4289,35.0983 106.3799,35.7073 C106.2709,36.9223 106.0369,38.1223 105.7049,39.2863 C105.3769,40.4533 104.9679,41.5903 104.5009,42.6993 C104.2679,43.2553 104.0219,43.8013 103.7609,44.3453 L103.3689,45.1453 C103.2419,45.3983 103.1189,45.6543 103.0029,45.9113 C102.0679,47.9683 101.4349,50.1513 101.3229,52.3913 C101.2669,53.5083 101.3359,54.6393 101.5669,55.7503 C101.7929,56.8583 102.1609,57.9683 102.7229,58.9743 L102.7289,58.9833 C102.7649,59.0493 102.7419,59.1363 102.6749,59.1733 C102.6179,59.2043 102.5499,59.1923 102.5079,59.1503" id="Fill-41" fill="#ffffff" mask="url(#mask-2)"></path>
                <path d="M105.4679,59.123 C105.1349,58.834 104.8669,58.495 104.6239,58.13 C104.3809,57.768 104.1769,57.376 104.0079,56.971 C103.6679,56.155 103.4679,55.275 103.4039,54.385 C103.2709,52.595 103.6839,50.801 104.3879,49.198 C104.4769,48.997 104.5689,48.798 104.6649,48.602 L104.9409,48.052 L105.4679,46.966 C105.8129,46.24 106.1469,45.51 106.4559,44.773 C106.7629,44.035 107.0509,43.29 107.2869,42.528 C107.5169,41.77 107.7339,40.978 107.7399,40.182 L107.7399,40.161 C107.7399,40.107 107.7859,40.064 107.8389,40.064 C107.8769,40.065 107.9069,40.086 107.9249,40.116 C108.1439,40.526 108.2239,40.956 108.2879,41.392 C108.3439,41.828 108.3559,42.267 108.3379,42.701 C108.3029,43.573 108.1569,44.432 107.9439,45.266 C107.7309,46.1 107.4549,46.911 107.1319,47.7 C106.9699,48.095 106.8009,48.483 106.6159,48.868 L106.3419,49.433 C106.2539,49.606 106.1689,49.782 106.0889,49.958 C105.4409,51.371 104.9879,52.852 104.8639,54.382 C104.8029,55.146 104.8229,55.923 104.9439,56.7 C105.0629,57.474 105.2739,58.26 105.6179,58.999 L105.6229,59.008 C105.6459,59.057 105.6239,59.115 105.5749,59.139 C105.5389,59.156 105.4959,59.148 105.4679,59.123" id="Fill-42" fill="#ffffff" mask="url(#mask-2)"></path>
                <path d="M69.1505,190.5707 L69.1505,190.5457 C69.1505,188.0957 71.0255,186.1737 73.5725,186.1737 C75.2905,186.1737 76.3955,186.8947 77.1395,187.9157 L75.3865,189.2737 C74.9065,188.6837 74.3535,188.2887 73.5485,188.2887 C72.3705,188.2887 71.5415,189.2967 71.5415,190.5237 L71.5415,190.5457 C71.5415,191.8087 72.3705,192.7947 73.5485,192.7947 C74.4245,192.7947 74.9425,192.3847 75.4465,191.7727 L77.1995,193.0227 C76.4075,194.1147 75.3385,194.9197 73.4885,194.9197 C71.0855,194.9197 69.1505,193.0827 69.1505,190.5707" id="Fill-43" fill="#ffffff" mask="url(#mask-2)"></path>
                <path d="M88.2057,190.5707 L88.2057,190.5457 C88.2057,189.3207 87.3407,188.2757 86.0547,188.2757 C84.7697,188.2757 83.9157,189.3087 83.9157,190.5237 L83.9157,190.5457 C83.9157,191.7597 84.7927,192.8167 86.0787,192.8167 C87.3527,192.8167 88.2057,191.7837 88.2057,190.5707 M81.5377,190.5707 L81.5377,190.5457 C81.5377,188.1307 83.4827,186.1737 86.0787,186.1737 C88.6737,186.1737 90.5967,188.1077 90.5967,190.5237 L90.5967,190.5457 C90.5967,192.9617 88.6507,194.9197 86.0547,194.9197 C83.4597,194.9197 81.5377,192.9857 81.5377,190.5707" id="Fill-44" fill="#ffffff" mask="url(#mask-2)"></path>
                <polygon id="Fill-45" fill="#ffffff" mask="url(#mask-2)" points="95.6417 186.3417 102.3707 186.3417 102.3707 188.3837 97.9727 188.3837 97.9727 189.8137 101.9497 189.8137 101.9497 191.7487 97.9727 191.7487 97.9727 194.7517 95.6417 194.7517"></polygon>
                <polygon id="Fill-46" fill="#ffffff" mask="url(#mask-2)" points="107.2828 186.3417 114.0108 186.3417 114.0108 188.3837 109.6138 188.3837 109.6138 189.8137 113.5908 189.8137 113.5908 191.7487 109.6138 191.7487 109.6138 194.7517 107.2828 194.7517"></polygon>
                <polygon id="Fill-47" fill="#ffffff" mask="url(#mask-2)" points="118.9244 186.3417 125.6884 186.3417 125.6884 188.3117 121.2314 188.3117 121.2314 189.5977 125.2684 189.5977 125.2684 191.4357 121.2314 191.4357 121.2314 192.7697 125.7484 192.7697 125.7484 194.7517 118.9244 194.7517"></polygon>
                <polygon id="Fill-48" fill="#ffffff" mask="url(#mask-2)" points="130.794 186.3417 137.559 186.3417 137.559 188.3117 133.101 188.3117 133.101 189.5977 137.137 189.5977 137.137 191.4357 133.101 191.4357 133.101 192.7697 137.619 192.7697 137.619 194.7517 130.794 194.7517"></polygon>
            </g>
        </g>
    </g>
</svg>
